PathFileType	4	(X/Y/Z)	G:\TennisProject\Miami_Dimitrov_Sinner_masked_Sports2D\Miami_Dimitrov_Sinner_masked_Sports2D_px_person03.trc
DataRate	CameraRate	NumFrames	NumMarkers	Units	OrigDataRate	OrigDataStartFrame	OrigNumFrames
25	25	7	22	m	25	124	499
Frame#	Time	Hip			RHip			RKnee			RAnkle			RBigToe			RSmallToe			RHeel			LHip			LKnee			LAnkle			LBigToe			LSmallToe			LHeel			Neck			Head			Nose			RShoulder			RElbow			RWrist			LShoulder			LElbow			LWrist		
		X1	Y1	Z1	X2	Y2	Z2	X3	Y3	Z3	X4	Y4	Z4	X5	Y5	Z5	X6	Y6	Z6	X7	Y7	Z7	X8	Y8	Z8	X9	Y9	Z9	X10	Y10	Z10	X11	Y11	Z11	X12	Y12	Z12	X13	Y13	Z13	X14	Y14	Z14	X15	Y15	Z15	X16	Y16	Z16	X17	Y17	Z17	X18	Y18	Z18	X19	Y19	Z19	X20	Y20	Z20	X21	Y21	Z21	X22	Y22	Z22
124	4.96	574.7290321152948	169.3603061934561	0.0	568.5727281143212	169.79795408277613	0.0	567.32300882332	191.57443081749744	0.0	566.9736140333001	213.75359026349432	0.0	565.3864862138723	218.99412049340063	0.0	562.5144094009743	218.54881594377082	0.0	567.9091341009964	217.0742734297285	0.0	580.6818205749946	169.99817054627428	0.0	583.2904175399448	191.49106249103073	0.0	585.7342732960356	213.37903996410998	0.0	587.0219198310257	218.24152800464702	0.0	589.3522551635816	217.76435290763803	0.0	584.2612681151099	216.74714193921702	0.0	573.6481949436791	138.56390510263088	0.0	572.8551510223697	125.19257215977612	0.0	572.4827801789926	132.51773472008182	0.0	563.5866592113173	144.10357594059394	0.0	562.7195635206526	156.487548290178	0.0	570.6083991867417	162.57474717437916	0.0	584.3089995659824	143.51659111008672	0.0	586.562356409036	156.26507468855183	0.0	579.0482359750324	162.99193496540653	0.0
125	5.0	574.7647227932063	169.27081516814292	0.0	568.6744695658641	169.69379332391065	0.0	567.3008266956248	191.45658471685314	0.0	566.9051068935507	213.700522798789	0.0	565.2511619963966	219.1557254903134	0.0	562.4020526732361	218.60956482123606	0.0	567.8394729607943	217.1080989715815	0.0	580.6701861495012	169.88588208490387	0.0	583.4007739725994	191.44855342226754	0.0	585.7647306360428	213.37017088179252	0.0	586.957971975921	218.4986991614984	0.0	589.431875628424	218.01981142822558	0.0	583.8570802270197	216.9859022369085	0.0	573.7154562817702	138.5714825918811	0.0	572.8110784582404	125.0716286143205	0.0	572.471464732068	132.53629433368923	0.0	563.6584329301184	144.05701529186342	0.0	562.7575888228026	156.32105747634347	0.0	570.4830339771496	162.50385352139466	0.0	584.4084436188341	143.52002693473887	0.0	586.5026574349989	156.20512410772574	0.0	579.607370430698	163.00153087626651	0.0
126	5.04	574.7354460977663	169.16471024676187	0.0	568.6945212069759	169.6522784659734	0.0	567.3395577798982	191.41042740761736	0.0	566.9726770332346	213.62385817034735	0.0	564.9952024066858	219.33767132743404	0.0	562.2130203108044	218.74706687162342	0.0	567.8695098480081	217.270603211567	0.0	580.6362553267102	169.73933683514295	0.0	583.4933626961847	191.42562676787477	0.0	585.7950412258532	213.33161766514453	0.0	586.8378336038645	218.73561589106978	0.0	589.5114080563485	218.22510877928244	0.0	583.4113208010189	217.1237343985144	0.0	573.7932067138702	138.5950390448942	0.0	572.7979673965805	124.9401549529552	0.0	572.5069521507683	132.47943581105574	0.0	563.743414381171	144.04322296610616	0.0	562.6797782873116	156.1843573791135	0.0	570.3643005608056	162.55919828579908	0.0	584.485688632994	143.52485531677524	0.0	586.493375630115	156.1554209916215	0.0	580.1329878096939	163.1186657980703	0.0
127	5.08	574.6943828863575	169.1938512067236	0.0	568.5759688255152	169.74049167784574	0.0	567.3424900140112	191.4709043714447	0.0	567.0595006256918	213.6919257335054	0.0	565.0477429107476	219.25272608043696	0.0	562.3267615160559	218.62209697695243	0.0	568.0138309565428	217.32445976360816	0.0	580.6198985501808	169.73342484174472	0.0	583.3690415435316	191.48524749227028	0.0	585.743620730505	213.3586405718001	0.0	586.947929964849	218.5201053445479	0.0	589.4335901537494	217.90537731249782	0.0	583.8273381490164	216.9431788286856	0.0	573.6897984789622	138.6142936088499	0.0	572.7802566751503	124.96213355392729	0.0	572.5025174931359	132.41441157690775	0.0	563.6660602565859	144.12828130539145	0.0	562.632816594854	156.30818909640138	0.0	570.5238674403698	162.72541568083716	0.0	584.3868867021108	143.4503971906227	0.0	586.4802337466522	156.18414759203094	0.0	579.5592313312915	163.14555032579625	0.0
128	5.12	574.7218456774319	169.28021503126175	0.0	568.5447884324557	169.83164575079866	0.0	567.3052608773319	191.53503268940003	0.0	567.0549561060152	213.72213621520524	0.0	565.231088420805	219.0850070204503	0.0	562.4650949809118	218.45509545083777	0.0	567.9859081927178	217.17507062276906	0.0	580.5858407847505	169.80245198759357	0.0	583.2121533837567	191.53036298570794	0.0	585.6553622082158	213.34863737076054	0.0	587.0259103057908	218.31285751744528	0.0	589.3585418062435	217.67068106257713	0.0	584.2486729458922	216.75182398188753	0.0	573.525318260618	138.5523462004514	0.0	572.7349055415897	125.02254548888244	0.0	572.477915915414	132.40254785844587	0.0	563.5689696562248	144.16446731633692	0.0	562.6995320961855	156.39677711741354	0.0	570.6829565733797	162.7874551871103	0.0	584.312108540222	143.41272870079806	0.0	586.4705080858819	156.261068967367	0.0	578.9473151611006	163.0910973515474	0.0
129	5.16	574.7680756594422	169.25544007243076	0.0	568.6597355346602	169.78866125255573	0.0	567.2895124353491	191.537938567285	0.0	567.0295896407295	213.57999472942845	0.0	565.1908492916041	219.1200644034717	0.0	562.3185947668729	218.58715398651452	0.0	567.7428179595433	217.05576567689073	0.0	580.5394548571469	169.79237981297882	0.0	583.2608021311524	191.46517966580444	0.0	585.6205889520477	213.245110825033	0.0	586.8204779329567	218.53497618432064	0.0	589.4381262999284	217.99778013732538	0.0	583.7681157425448	216.81088687100385	0.0	573.5297702064263	138.42133500883847	0.0	572.7326208418665	124.9826940714234	0.0	572.5441590353167	132.37954221392658	0.0	563.6273827982109	144.05451022031195	0.0	562.7401517959488	156.21082131588074	0.0	570.5241690386199	162.68492183283772	0.0	584.4062772009488	143.484071134654	0.0	586.5132803061176	156.2905287922564	0.0	579.4430957204785	163.1158709058194	0.0
130	5.2	574.7398884494202	169.1981086728381	0.0	568.7012740428876	169.68707229457954	0.0	567.3319532674541	191.51691522482557	0.0	567.0566128495232	213.488380808314	0.0	565.057831369816	219.2170286945025	0.0	562.1821098243079	218.76867178059453	0.0	567.6345379678457	217.1393679437794	0.0	580.5455122344279	169.77350119006357	0.0	583.3917259536039	191.37466063979588	0.0	585.6307384285983	213.19760079906686	0.0	586.6571475665473	218.69582500115348	0.0	589.5273473275533	218.24677185765375	0.0	583.2815319507127	216.90527232641878	0.0	573.6442903410409	138.37405927519353	0.0	572.7847574762932	124.97364533259417	0.0	572.6378882703003	132.3530642241239	0.0	563.7328130698805	143.99260078028317	0.0	562.6796831536815	156.0653965229547	0.0	570.3050205851382	162.5877278051039	0.0	584.4856614028884	143.54325638559737	0.0	586.5879225796999	156.27750280810255	0.0	580.1348828831873	163.14247146868888	0.0
